HIERARCHY
ROOT mixamorig:Hips
{
	OFFSET 0.000000 201.639420 0.000000
	CHANNELS 6 Xposition Yposition Zposition Xrotation Yrotation Zrotation
	JOINT mixamorig:Spine
	{
		OFFSET 0.006200 19.524994 -2.481800
		CHANNELS 3 Xrotation Yrotation Zrotation
		JOINT mixamorig:Spine1
		{
			OFFSET -0.000900 22.835007 -2.825400
			CHANNELS 3 Xrotation Yrotation Zrotation
			JOINT mixamorig:Spine2
			{
				OFFSET -0.020600 26.552490 -3.193300
				CHANNELS 3 Xrotation Yrotation Zrotation
				JOINT mixamorig:Neck
				{
					OFFSET -0.060000 30.701813 1.352200
					CHANNELS 3 Xrotation Yrotation Zrotation
					JOINT mixamorig:Head
					{
						OFFSET -0.087200 22.547607 3.670900
						CHANNELS 3 Xrotation Yrotation Zrotation
						JOINT mixamorig:HeadTop_End
						{
							OFFSET -0.830600 40.355194 7.893500
							CHANNELS 3 Xrotation Yrotation Zrotation
							End Site
							{
								OFFSET 0.000000 30.592346 0.000000
							}
						}
						JOINT mixamorig:RightEye
						{
							OFFSET -6.302100 18.118591 16.197100
							CHANNELS 3 Xrotation Yrotation Zrotation
							End Site
							{
								OFFSET 0.000000 30.592346 0.000000
							}
						}
						JOINT mixamorig:LeftEye
						{
							OFFSET 6.741500 18.382690 16.401899
							CHANNELS 3 Xrotation Yrotation Zrotation
							End Site
							{
								OFFSET 0.000000 30.592346 0.000000
							}
						}
					}
				}
				JOINT mixamorig:LeftShoulder
				{
					OFFSET 11.924900 18.230499 1.425400
					CHANNELS 3 Xrotation Yrotation Zrotation
					JOINT mixamorig:LeftArm
					{
						OFFSET 25.435989 -0.697632 -5.229300
						CHANNELS 3 Xrotation Yrotation Zrotation
						JOINT mixamorig:LeftForeArm
						{
							OFFSET 54.684776 0.000000 0.000000
							CHANNELS 3 Xrotation Yrotation Zrotation
							JOINT mixamorig:LeftHand
							{
								OFFSET 55.098175 0.000000 0.000000
								CHANNELS 3 Xrotation Yrotation Zrotation
								JOINT mixamorig:LeftHandMiddle1
								{
									OFFSET 23.369751 0.000000 0.000000
									CHANNELS 3 Xrotation Yrotation Zrotation
									JOINT mixamorig:LeftHandMiddle2
									{
										OFFSET 6.378677 0.000000 0.000000
										CHANNELS 3 Xrotation Yrotation Zrotation
										JOINT mixamorig:LeftHandMiddle3
										{
											OFFSET 6.148331 0.000000 0.000000
											CHANNELS 3 Xrotation Yrotation Zrotation
											JOINT mixamorig:LeftHandMiddle4
											{
												OFFSET 6.582504 0.000000 0.000000
												CHANNELS 3 Xrotation Yrotation Zrotation
												End Site
												{
													OFFSET -1.168900 6.395691 1.028606
												}
											}
										}
									}
								}
								JOINT mixamorig:LeftHandThumb1
								{
									OFFSET 7.235672 -3.848206 5.434273
									CHANNELS 3 Xrotation Yrotation Zrotation
									JOINT mixamorig:LeftHandThumb2
									{
										OFFSET 6.568451 -3.792297 3.792300
										CHANNELS 3 Xrotation Yrotation Zrotation
										JOINT mixamorig:LeftHandThumb3
										{
											OFFSET 6.063080 -3.500519 3.500518
											CHANNELS 3 Xrotation Yrotation Zrotation
											JOINT mixamorig:LeftHandThumb4
											{
												OFFSET 4.793182 -2.767334 2.767349
												CHANNELS 3 Xrotation Yrotation Zrotation
												End Site
												{
													OFFSET 0.101639 6.054260 1.275483
												}
											}
										}
									}
								}
								JOINT mixamorig:LeftHandIndex1
								{
									OFFSET 23.101074 -0.309540 4.992809
									CHANNELS 3 Xrotation Yrotation Zrotation
									JOINT mixamorig:LeftHandIndex2
									{
										OFFSET 6.226883 0.000000 0.000000
										CHANNELS 3 Xrotation Yrotation Zrotation
										JOINT mixamorig:LeftHandIndex3
										{
											OFFSET 6.094330 0.000000 0.000000
											CHANNELS 3 Xrotation Yrotation Zrotation
											JOINT mixamorig:LeftHandIndex4
											{
												OFFSET 5.482605 0.000000 0.000000
												CHANNELS 3 Xrotation Yrotation Zrotation
												End Site
												{
													OFFSET -1.427902 5.233032 0.797164
												}
											}
										}
									}
								}
								JOINT mixamorig:LeftHandRing1
								{
									OFFSET 22.299240 0.021149 -3.964172
									CHANNELS 3 Xrotation Yrotation Zrotation
									JOINT mixamorig:LeftHandRing2
									{
										OFFSET 6.321869 0.000000 0.000000
										CHANNELS 3 Xrotation Yrotation Zrotation
										JOINT mixamorig:LeftHandRing3
										{
											OFFSET 5.899796 0.000000 0.000000
											CHANNELS 3 Xrotation Yrotation Zrotation
											JOINT mixamorig:LeftHandRing4
											{
												OFFSET 6.517899 0.000000 0.000000
												CHANNELS 3 Xrotation Yrotation Zrotation
												End Site
												{
													OFFSET -1.637299 6.232208 0.980890
												}
											}
										}
									}
								}
								JOINT mixamorig:LeftHandPinky1
								{
									OFFSET 20.463791 -0.302338 -8.562233
									CHANNELS 3 Xrotation Yrotation Zrotation
									JOINT mixamorig:LeftHandPinky2
									{
										OFFSET 6.908646 0.000000 0.000000
										CHANNELS 3 Xrotation Yrotation Zrotation
										JOINT mixamorig:LeftHandPinky3
										{
											OFFSET 4.622849 0.000000 0.000000
											CHANNELS 3 Xrotation Yrotation Zrotation
											JOINT mixamorig:LeftHandPinky4
											{
												OFFSET 5.216080 0.000000 0.000000
												CHANNELS 3 Xrotation Yrotation Zrotation
												End Site
												{
													OFFSET -0.606308 5.116241 0.814926
												}
											}
										}
									}
								}
							}
						}
					}
				}
				JOINT mixamorig:RightShoulder
				{
					OFFSET -12.001300 18.284088 1.348900
					CHANNELS 3 Xrotation Yrotation Zrotation
					JOINT mixamorig:RightArm
					{
						OFFSET -25.308500 -0.751312 -5.164599
						CHANNELS 3 Xrotation Yrotation Zrotation
						JOINT mixamorig:RightForeArm
						{
							OFFSET -54.684429 0.000000 0.000000
							CHANNELS 3 Xrotation Yrotation Zrotation
							JOINT mixamorig:RightHand
							{
								OFFSET -55.150291 0.000000 0.000000
								CHANNELS 3 Xrotation Yrotation Zrotation
								JOINT mixamorig:RightHandMiddle1
								{
									OFFSET -23.317566 0.000000 0.000000
									CHANNELS 3 Xrotation Yrotation Zrotation
									JOINT mixamorig:RightHandMiddle2
									{
										OFFSET -6.378403 0.000000 0.000000
										CHANNELS 3 Xrotation Yrotation Zrotation
										JOINT mixamorig:RightHandMiddle3
										{
											OFFSET -6.148193 0.000000 0.000000
											CHANNELS 3 Xrotation Yrotation Zrotation
											JOINT mixamorig:RightHandMiddle4
											{
												OFFSET -6.583389 0.000000 0.000000
												CHANNELS 3 Xrotation Yrotation Zrotation
												End Site
												{
													OFFSET 1.171692 6.395905 1.029786
												}
											}
										}
									}
								}
								JOINT mixamorig:RightHandThumb1
								{
									OFFSET -7.190521 -3.860474 5.435846
									CHANNELS 3 Xrotation Yrotation Zrotation
									JOINT mixamorig:RightHandThumb2
									{
										OFFSET -6.567429 -3.791718 3.791708
										CHANNELS 3 Xrotation Yrotation Zrotation
										JOINT mixamorig:RightHandThumb3
										{
											OFFSET -6.062469 -3.500153 3.500166
											CHANNELS 3 Xrotation Yrotation Zrotation
											JOINT mixamorig:RightHandThumb4
											{
												OFFSET -4.792618 -2.767029 2.767022
												CHANNELS 3 Xrotation Yrotation Zrotation
												End Site
												{
													OFFSET -0.100327 6.053253 1.276754
												}
											}
										}
									}
								}
								JOINT mixamorig:RightHandIndex1
								{
									OFFSET -23.048981 -0.310791 4.992554
									CHANNELS 3 Xrotation Yrotation Zrotation
									JOINT mixamorig:RightHandIndex2
									{
										OFFSET -6.227539 0.000000 0.000000
										CHANNELS 3 Xrotation Yrotation Zrotation
										JOINT mixamorig:RightHandIndex3
										{
											OFFSET -6.095047 0.000000 0.000000
											CHANNELS 3 Xrotation Yrotation Zrotation
											JOINT mixamorig:RightHandIndex4
											{
												OFFSET -5.484772 0.000000 0.000000
												CHANNELS 3 Xrotation Yrotation Zrotation
												End Site
												{
													OFFSET 1.420593 5.237305 0.797056
												}
											}
										}
									}
								}
								JOINT mixamorig:RightHandRing1
								{
									OFFSET -22.246323 0.020569 -3.963762
									CHANNELS 3 Xrotation Yrotation Zrotation
									JOINT mixamorig:RightHandRing2
									{
										OFFSET -6.322128 0.000000 0.000000
										CHANNELS 3 Xrotation Yrotation Zrotation
										JOINT mixamorig:RightHandRing3
										{
											OFFSET -5.900024 0.000000 0.000000
											CHANNELS 3 Xrotation Yrotation Zrotation
											JOINT mixamorig:RightHandRing4
											{
												OFFSET -6.518356 0.000000 0.000000
												CHANNELS 3 Xrotation Yrotation Zrotation
												End Site
												{
													OFFSET 1.636398 6.232697 0.982186
												}
											}
										}
									}
								}
								JOINT mixamorig:RightHandPinky1
								{
									OFFSET -20.411011 -0.303314 -8.561701
									CHANNELS 3 Xrotation Yrotation Zrotation
									JOINT mixamorig:RightHandPinky2
									{
										OFFSET -6.907349 0.000000 0.000000
										CHANNELS 3 Xrotation Yrotation Zrotation
										JOINT mixamorig:RightHandPinky3
										{
											OFFSET -4.623840 0.000000 0.000000
											CHANNELS 3 Xrotation Yrotation Zrotation
											JOINT mixamorig:RightHandPinky4
											{
												OFFSET -5.218353 0.000000 0.000000
												CHANNELS 3 Xrotation Yrotation Zrotation
												End Site
												{
													OFFSET 0.602097 5.118835 0.816273
												}
											}
										}
									}
								}
							}
						}
					}
				}
			}
		}
	}
	JOINT mixamorig:LeftUpLeg
	{
		OFFSET 18.168400 -13.561905 -0.039000
		CHANNELS 3 Xrotation Yrotation Zrotation
		JOINT mixamorig:LeftLeg
		{
			OFFSET 0.577358 -80.825211 -3.695000
			CHANNELS 3 Xrotation Yrotation Zrotation
			JOINT mixamorig:LeftFoot
			{
				OFFSET -0.577356 -83.370262 -6.520700
				CHANNELS 3 Xrotation Yrotation Zrotation
				JOINT mixamorig:LeftToeBase
				{
					OFFSET 0.750401 -20.798306 25.135401
					CHANNELS 3 Xrotation Yrotation Zrotation
					JOINT mixamorig:LeftToe_End
					{
						OFFSET -0.000500 0.001200 19.917799
						CHANNELS 3 Xrotation Yrotation Zrotation
						End Site
						{
							OFFSET 0.000000 19.917805 0.000000
						}
					}
				}
			}
		}
	}
	JOINT mixamorig:RightUpLeg
	{
		OFFSET -18.162500 -13.585098 -0.041000
		CHANNELS 3 Xrotation Yrotation Zrotation
		JOINT mixamorig:RightLeg
		{
			OFFSET -0.595024 -80.945297 -3.631900
			CHANNELS 3 Xrotation Yrotation Zrotation
			JOINT mixamorig:RightFoot
			{
				OFFSET 0.595024 -83.218193 -6.561200
				CHANNELS 3 Xrotation Yrotation Zrotation
				JOINT mixamorig:RightToeBase
				{
					OFFSET -0.753601 -20.807106 25.115000
					CHANNELS 3 Xrotation Yrotation Zrotation
					JOINT mixamorig:RightToe_End
					{
						OFFSET 0.000299 0.001700 19.918200
						CHANNELS 3 Xrotation Yrotation Zrotation
						End Site
						{
							OFFSET 0.000000 19.918203 0.000000
						}
					}
				}
			}
		}
	}
}
MOTION
Frames: 4
Frame Time: 0.033333
-11.335218 265.688782 -31.477451 10.171908 -10.428942 -1.005239 32.964952 5.594185 2.351553 6.972705 1.391044 0.871784 6.972214 1.378574 0.896321 8.056911 3.406102 1.966666 -5.202930 28.485548 -21.553774 -0.000001 0.000003 0.000001 -0.000001 0.000003 0.000001 -0.000001 0.000003 0.000001 0.297427 -3.500260 3.544041 -39.949585 20.541316 25.469787 0.000005 -2.071971 -0.000006 6.213119 -16.408729 -31.159736 0.069844 0.980268 -8.151108 0.078708 1.040176 -8.653156 0.076508 1.025678 -8.531526 -0.000004 0.000000 -0.000000 -1.511627 3.683008 6.109757 3.939041 7.948708 0.746773 -0.579464 1.575007 2.538728 0.000002 0.000001 0.000000 0.033135 0.675969 -5.610555 0.032968 0.674434 -5.597741 0.032967 0.674425 -5.597744 0.000000 0.000000 -0.000001 0.141446 1.391203 -11.609532 0.158269 1.470733 -12.283660 0.154440 1.453029 -12.133352 0.000001 0.000000 -0.000002 1.260522 5.698219 -14.444257 0.229465 -2.281930 -15.368559 0.231643 1.774435 -14.874748 -0.000001 -0.000001 -0.000001 -2.798610 -5.241356 -32.326828 -41.902411 9.857655 -11.713261 -0.000003 14.060216 0.000003 10.128956 -9.795431 63.119363 0.734455 -4.504876 10.622723 0.142212 -1.401920 11.584706 -0.321085 -1.479192 11.440320 0.000003 -0.000001 -0.000002 -1.849255 -3.581793 -6.586141 4.637203 -8.634127 -0.225393 -1.273765 0.137313 -2.094863 0.000003 -0.000000 -0.000001 0.097315 -1.161571 9.577308 0.097305 -1.161580 9.577313 0.097317 -1.161576 9.577302 0.000004 0.000000 0.000004 1.799543 -8.681478 12.425410 0.204354 -1.676597 13.897322 -0.341222 -1.789765 13.721063 -0.000001 -0.000003 -0.000004 3.082002 -12.378809 14.479210 0.252511 -1.860361 15.457596 0.252504 -1.860348 15.457618 0.000000 0.000002 0.000001 -130.920738 -15.003916 32.041640 126.194220 -10.165242 -3.597276 19.577016 -26.298423 10.302729 -0.018050 -0.000001 -0.000005 0.000001 -0.000001 -0.000001 -106.913006 25.963335 -40.974745 135.604144 1.259221 0.712349 3.452343 17.674824 32.604352 -0.009089 -0.000015 -0.000010 0.000000 0.000003 -0.000001 
-10.889061 261.670959 -29.629597 10.177257 -10.528188 -0.368477 31.545143 5.547859 1.218522 6.654290 1.525369 0.694356 6.652863 1.519581 0.720399 7.933243 3.323952 1.979302 -4.326155 27.776301 -21.394193 0.000001 0.000002 -0.000001 0.000001 0.000002 -0.000001 0.000001 0.000002 -0.000001 0.096806 -2.640962 3.995966 -39.398853 20.613897 28.484592 0.000006 -3.181853 -0.000008 7.911552 -13.616476 -32.808517 0.069844 0.980270 -8.151111 0.078710 1.040175 -8.653153 0.076505 1.025677 -8.531525 -0.000003 0.000001 0.000001 -1.509343 3.682932 6.105662 3.939044 7.948707 0.746773 -0.579472 1.575008 2.538732 0.000004 0.000000 0.000001 0.033133 0.675969 -5.610555 0.032966 0.674434 -5.597743 0.032959 0.674424 -5.597743 -0.000000 0.000000 -0.000002 0.141446 1.391203 -11.609530 0.158269 1.470732 -12.283659 0.154441 1.453026 -12.133356 0.000001 -0.000001 -0.000002 1.260521 5.698221 -14.444257 0.229467 -2.281931 -15.368561 0.231646 1.774432 -14.874750 -0.000002 0.000000 0.000002 -1.498655 -1.390069 -31.955976 -37.914896 1.781101 -18.285844 -0.000010 18.102785 0.000008 5.255667 -11.218386 65.833099 0.734455 -4.504880 10.622721 0.142210 -1.401927 11.584698 -0.321084 -1.479194 11.440328 0.000000 0.000000 -0.000002 -1.849250 -3.581793 -6.586141 4.637196 -8.634127 -0.225395 -1.273761 0.137310 -2.094862 -0.000001 -0.000000 -0.000001 0.097319 -1.161574 9.577307 0.097307 -1.161573 9.577317 0.097315 -1.161577 9.577305 0.000001 0.000002 -0.000004 1.799548 -8.681481 12.425408 0.204354 -1.676594 13.897316 -0.341219 -1.789765 13.721061 0.000000 -0.000002 0.000001 3.082003 -12.378811 14.479209 0.252519 -1.860356 15.457601 0.252504 -1.860350 15.457618 -0.000002 -0.000001 0.000001 -127.080765 -11.958758 32.863653 125.076555 -9.957978 -5.434570 19.474005 -25.966972 13.934546 -0.017775 0.000004 -0.000008 -0.000001 -0.000002 -0.000001 -100.670192 23.394088 -40.836185 132.333317 2.266258 1.689039 -0.759922 15.794491 32.407895 -0.007641 0.000015 0.000019 0.000003 0.000003 -0.000000 
-10.635096 254.601028 -28.040955 8.993963 -11.172044 -0.731802 29.213815 6.377724 0.714439 6.148040 1.689679 0.670944 6.145165 1.688670 0.697362 7.595877 3.381631 1.904686 -4.217153 27.755515 -21.206773 0.000000 0.000000 -0.000000 0.000000 0.000000 -0.000000 0.000000 0.000000 -0.000000 -0.043226 -2.105049 4.698105 -37.610334 21.012624 30.423852 -0.000001 -3.802414 -0.000003 8.346197 -13.014778 -35.101247 0.069845 0.980268 -8.151109 0.078711 1.040176 -8.653156 0.076507 1.025678 -8.531526 -0.000001 0.000001 -0.000001 -1.507295 3.682862 6.101988 3.939044 7.948707 0.746772 -0.579466 1.575008 2.538729 0.000001 0.000002 -0.000001 0.033130 0.675969 -5.610555 0.032965 0.674434 -5.597741 0.032971 0.674426 -5.597744 0.000002 -0.000001 0.000000 0.141444 1.391203 -11.609534 0.158267 1.470732 -12.283658 0.154442 1.453026 -12.133356 -0.000001 -0.000002 0.000001 1.260520 5.698219 -14.444257 0.229465 -2.281930 -15.368559 0.231642 1.774436 -14.874754 0.000002 0.000001 -0.000001 -0.586031 1.893356 -30.770528 -35.674536 -4.318887 -21.528674 -0.000005 21.180376 0.000008 3.649085 -11.982762 66.554456 0.734453 -4.504876 10.622721 0.142212 -1.401921 11.584705 -0.321082 -1.479198 11.440323 0.000004 -0.000001 -0.000002 -1.849253 -3.581791 -6.586139 4.637206 -8.634126 -0.225394 -1.273765 0.137314 -2.094861 -0.000002 -0.000001 -0.000000 0.097315 -1.161571 9.577306 0.097303 -1.161576 9.577314 0.097312 -1.161576 9.577301 0.000001 0.000001 0.000001 1.799548 -8.681477 12.425410 0.204355 -1.676602 13.897319 -0.341225 -1.789767 13.721063 -0.000002 -0.000000 -0.000002 3.082007 -12.378808 14.479214 0.252510 -1.860356 15.457603 0.252503 -1.860347 15.457618 -0.000002 0.000001 0.000000 -121.805099 -9.286338 31.986589 123.675205 -9.670996 -5.154207 16.468293 -23.034721 13.765695 -0.013803 -0.000001 0.000003 -0.000003 -0.000000 -0.000000 -94.151747 19.124229 -37.674617 129.411840 3.057654 1.405171 -7.331790 11.822873 32.622817 -0.004560 0.000015 0.000002 -0.000003 0.000001 0.000000 
-10.726233 246.029587 -26.328325 7.983285 -11.586470 -1.011185 26.235918 7.250267 0.529232 5.493618 1.777546 0.698129 5.488787 1.781505 0.721499 7.539788 3.430400 2.119272 -4.785910 28.012096 -20.523561 -0.000001 0.000003 -0.000000 -0.000001 0.000003 -0.000000 -0.000001 0.000003 -0.000000 0.011305 -2.480304 4.774727 -37.182051 23.070675 31.852983 -0.000002 -4.511532 0.000001 11.428610 -13.192683 -36.897297 0.069851 0.980268 -8.151110 0.078719 1.040176 -8.653157 0.076512 1.025679 -8.531526 -0.000000 -0.000001 0.000001 -1.505477 3.682796 6.098725 3.939043 7.948709 0.746773 -0.579461 1.575009 2.538731 -0.000001 -0.000000 -0.000000 0.033137 0.675968 -5.610557 0.032962 0.674434 -5.597742 0.032969 0.674426 -5.597743 -0.000001 0.000001 -0.000002 0.141442 1.391203 -11.609530 0.158261 1.470731 -12.283658 0.154444 1.453027 -12.133354 -0.000000 -0.000001 -0.000002 1.260519 5.698219 -14.444257 0.229464 -2.281929 -15.368559 0.231642 1.774433 -14.874747 0.000004 -0.000001 0.000001 0.191149 4.597380 -27.441987 -34.841444 -8.763852 -22.375290 -0.000006 23.256263 0.000011 11.830868 -12.196674 70.334993 0.734455 -4.504879 10.622720 0.142210 -1.401924 11.584709 -0.321083 -1.479196 11.440328 0.000002 -0.000001 -0.000001 -1.849257 -3.581790 -6.586142 4.637202 -8.634124 -0.225393 -1.273768 0.137314 -2.094861 0.000005 0.000000 -0.000001 0.097316 -1.161572 9.577302 0.097307 -1.161578 9.577316 0.097319 -1.161581 9.577300 -0.000000 0.000000 0.000000 1.799547 -8.681479 12.425403 0.204353 -1.676599 13.897318 -0.341219 -1.789764 13.721068 -0.000001 0.000002 0.000005 3.082007 -12.378809 14.479204 0.252511 -1.860355 15.457599 0.252501 -1.860353 15.457620 0.000003 0.000002 0.000002 -114.516775 -6.672324 31.610419 121.553844 -9.517310 -4.392835 8.649604 -23.007554 11.791102 -0.005161 -0.000005 -0.000002 -0.000002 0.000001 0.000000 -86.027797 14.110157 -33.394830 125.448514 3.419227 0.578945 -13.529582 7.361612 33.266109 -0.002626 0.000018 -0.000001 -0.000001 -0.000000 0.000000 
